<mxfile host="app.diagrams.net" agent="Mozilla/5.0 (Windows NT 10.0; Win64; x64) AppleWebKit/537.36 (KHTML, like Gecko) Chrome/139.0.0.0 Safari/537.36" version="28.1.2">
  <diagram name="Page-1" id="oDLwJqt906xFxt-FWghb">
    <mxGraphModel dx="1042" dy="562" grid="1" gridSize="10" guides="1" tooltips="1" connect="1" arrows="1" fold="1" page="1" pageScale="1" pageWidth="827" pageHeight="1169" math="0" shadow="0">
      <root>
        <mxCell id="0" />
        <mxCell id="1" parent="0" />
        <mxCell id="0pAaLDs-M5oaFOF3E11J-3" value="" style="rounded=0;whiteSpace=wrap;html=1;direction=south;" parent="1" vertex="1">
          <mxGeometry x="280" y="40" width="240" height="700" as="geometry" />
        </mxCell>
        <mxCell id="0pAaLDs-M5oaFOF3E11J-4" value="Online Laptop Shop" style="text;strokeColor=none;align=center;fillColor=none;html=1;verticalAlign=middle;whiteSpace=wrap;rounded=0;" parent="1" vertex="1">
          <mxGeometry x="340" y="40" width="120" height="30" as="geometry" />
        </mxCell>
        <mxCell id="0pAaLDs-M5oaFOF3E11J-5" value="Review" style="ellipse;whiteSpace=wrap;html=1;container=1;" parent="1" vertex="1">
          <mxGeometry x="340" y="380" width="120" height="30" as="geometry" />
        </mxCell>
        <mxCell id="0pAaLDs-M5oaFOF3E11J-6" value="Register" style="text;strokeColor=none;align=center;fillColor=none;html=1;verticalAlign=middle;whiteSpace=wrap;rounded=0;" parent="1" vertex="1">
          <mxGeometry x="375" y="80" width="60" height="30" as="geometry" />
        </mxCell>
        <mxCell id="0pAaLDs-M5oaFOF3E11J-8" value="Forgot Password" style="ellipse;whiteSpace=wrap;html=1;container=1;" parent="1" vertex="1">
          <mxGeometry x="340" y="120" width="120" height="30" as="geometry" />
        </mxCell>
        <mxCell id="0pAaLDs-M5oaFOF3E11J-9" value="" style="ellipse;whiteSpace=wrap;html=1;container=1;" parent="1" vertex="1">
          <mxGeometry x="340" y="160" width="120" height="30" as="geometry" />
        </mxCell>
        <mxCell id="0pAaLDs-M5oaFOF3E11J-10" value="Login" style="text;strokeColor=none;align=center;fillColor=none;html=1;verticalAlign=middle;whiteSpace=wrap;rounded=0;container=1;" parent="0pAaLDs-M5oaFOF3E11J-9" vertex="1">
          <mxGeometry x="32.5" width="55" height="30" as="geometry" />
        </mxCell>
        <mxCell id="0pAaLDs-M5oaFOF3E11J-17" value="Manage Cart" style="ellipse;whiteSpace=wrap;html=1;container=1;" parent="1" vertex="1">
          <mxGeometry x="340" y="340" width="120" height="30" as="geometry" />
        </mxCell>
        <mxCell id="0pAaLDs-M5oaFOF3E11J-20" value="Register" style="ellipse;whiteSpace=wrap;html=1;container=1;" parent="1" vertex="1">
          <mxGeometry x="340" y="80" width="120" height="30" as="geometry" />
        </mxCell>
        <mxCell id="0pAaLDs-M5oaFOF3E11J-23" value="Profile Edit" style="ellipse;whiteSpace=wrap;html=1;container=1;" parent="1" vertex="1">
          <mxGeometry x="340" y="420" width="120" height="30" as="geometry" />
        </mxCell>
        <mxCell id="4KmMnt4Qvvy9tC9HKDvp-6" style="edgeStyle=orthogonalEdgeStyle;rounded=0;orthogonalLoop=1;jettySize=auto;html=1;exitX=0;exitY=0;exitDx=0;exitDy=0;" parent="1" edge="1">
          <mxGeometry relative="1" as="geometry">
            <mxPoint x="440" y="290" as="sourcePoint" />
            <mxPoint x="440" y="290" as="targetPoint" />
          </mxGeometry>
        </mxCell>
        <mxCell id="4KmMnt4Qvvy9tC9HKDvp-11" value="View/Search Product" style="ellipse;whiteSpace=wrap;html=1;container=1;" parent="1" vertex="1">
          <mxGeometry x="335" y="200" width="130" height="30" as="geometry" />
        </mxCell>
        <mxCell id="4KmMnt4Qvvy9tC9HKDvp-19" value="View User Detail" style="ellipse;whiteSpace=wrap;html=1;container=1;" parent="1" vertex="1">
          <mxGeometry x="340" y="460" width="120" height="30" as="geometry" />
        </mxCell>
        <mxCell id="4KmMnt4Qvvy9tC9HKDvp-20" value="Manage Brand" style="ellipse;whiteSpace=wrap;html=1;container=1;" parent="1" vertex="1">
          <mxGeometry x="340" y="500" width="120" height="30" as="geometry" />
        </mxCell>
        <mxCell id="4KmMnt4Qvvy9tC9HKDvp-21" value="Manage Product" style="ellipse;whiteSpace=wrap;html=1;container=1;" parent="1" vertex="1">
          <mxGeometry x="340" y="560" width="120" height="30" as="geometry" />
        </mxCell>
        <mxCell id="4KmMnt4Qvvy9tC9HKDvp-22" value="View Review" style="ellipse;whiteSpace=wrap;html=1;container=1;" parent="1" vertex="1">
          <mxGeometry x="340" y="600" width="120" height="30" as="geometry" />
        </mxCell>
        <mxCell id="4KmMnt4Qvvy9tC9HKDvp-24" value="Manage Order" style="ellipse;whiteSpace=wrap;html=1;container=1;" parent="1" vertex="1">
          <mxGeometry x="345" y="640" width="120" height="30" as="geometry" />
        </mxCell>
        <mxCell id="4KmMnt4Qvvy9tC9HKDvp-25" value="Logout" style="ellipse;whiteSpace=wrap;html=1;container=1;" parent="1" vertex="1">
          <mxGeometry x="340" y="680" width="120" height="30" as="geometry" />
        </mxCell>
        <mxCell id="4KmMnt4Qvvy9tC9HKDvp-26" value="User" style="shape=umlActor;verticalLabelPosition=bottom;verticalAlign=top;html=1;outlineConnect=0;" parent="1" vertex="1">
          <mxGeometry x="180" y="430" width="30" height="60" as="geometry" />
        </mxCell>
        <mxCell id="4KmMnt4Qvvy9tC9HKDvp-28" value="Admin" style="shape=umlActor;verticalLabelPosition=bottom;verticalAlign=top;html=1;outlineConnect=0;" parent="1" vertex="1">
          <mxGeometry x="590" y="430" width="30" height="60" as="geometry" />
        </mxCell>
        <mxCell id="4KmMnt4Qvvy9tC9HKDvp-33" value="" style="endArrow=none;html=1;rounded=0;entryX=0;entryY=0.5;entryDx=0;entryDy=0;" parent="1" target="0pAaLDs-M5oaFOF3E11J-20" edge="1">
          <mxGeometry width="50" height="50" relative="1" as="geometry">
            <mxPoint x="210" y="450" as="sourcePoint" />
            <mxPoint x="260" y="400" as="targetPoint" />
          </mxGeometry>
        </mxCell>
        <mxCell id="4KmMnt4Qvvy9tC9HKDvp-36" value="" style="endArrow=none;html=1;rounded=0;entryX=0;entryY=0.5;entryDx=0;entryDy=0;" parent="1" target="0pAaLDs-M5oaFOF3E11J-8" edge="1">
          <mxGeometry width="50" height="50" relative="1" as="geometry">
            <mxPoint x="210" y="450" as="sourcePoint" />
            <mxPoint x="260" y="400" as="targetPoint" />
          </mxGeometry>
        </mxCell>
        <mxCell id="4KmMnt4Qvvy9tC9HKDvp-37" value="" style="endArrow=none;html=1;rounded=0;entryX=0;entryY=0.5;entryDx=0;entryDy=0;" parent="1" target="0pAaLDs-M5oaFOF3E11J-9" edge="1">
          <mxGeometry width="50" height="50" relative="1" as="geometry">
            <mxPoint x="210" y="450" as="sourcePoint" />
            <mxPoint x="260" y="400" as="targetPoint" />
          </mxGeometry>
        </mxCell>
        <mxCell id="4KmMnt4Qvvy9tC9HKDvp-39" value="" style="endArrow=none;html=1;rounded=0;entryX=0;entryY=0.5;entryDx=0;entryDy=0;" parent="1" target="4KmMnt4Qvvy9tC9HKDvp-11" edge="1">
          <mxGeometry width="50" height="50" relative="1" as="geometry">
            <mxPoint x="210" y="450" as="sourcePoint" />
            <mxPoint x="260" y="400" as="targetPoint" />
          </mxGeometry>
        </mxCell>
        <mxCell id="4KmMnt4Qvvy9tC9HKDvp-40" value="" style="endArrow=none;html=1;rounded=0;entryX=0;entryY=0.5;entryDx=0;entryDy=0;" parent="1" target="0pAaLDs-M5oaFOF3E11J-17" edge="1">
          <mxGeometry width="50" height="50" relative="1" as="geometry">
            <mxPoint x="210" y="450" as="sourcePoint" />
            <mxPoint x="260" y="400" as="targetPoint" />
          </mxGeometry>
        </mxCell>
        <mxCell id="4KmMnt4Qvvy9tC9HKDvp-43" value="" style="endArrow=none;html=1;rounded=0;entryX=0;entryY=0.5;entryDx=0;entryDy=0;" parent="1" target="0pAaLDs-M5oaFOF3E11J-5" edge="1">
          <mxGeometry width="50" height="50" relative="1" as="geometry">
            <mxPoint x="210" y="450" as="sourcePoint" />
            <mxPoint x="260" y="400" as="targetPoint" />
          </mxGeometry>
        </mxCell>
        <mxCell id="4KmMnt4Qvvy9tC9HKDvp-44" value="" style="endArrow=none;html=1;rounded=0;entryX=0;entryY=0.5;entryDx=0;entryDy=0;" parent="1" target="0pAaLDs-M5oaFOF3E11J-23" edge="1">
          <mxGeometry width="50" height="50" relative="1" as="geometry">
            <mxPoint x="210" y="450" as="sourcePoint" />
            <mxPoint x="260" y="400" as="targetPoint" />
          </mxGeometry>
        </mxCell>
        <mxCell id="4KmMnt4Qvvy9tC9HKDvp-46" value="" style="endArrow=none;html=1;rounded=0;exitX=1;exitY=0.5;exitDx=0;exitDy=0;" parent="1" source="4KmMnt4Qvvy9tC9HKDvp-25" edge="1">
          <mxGeometry width="50" height="50" relative="1" as="geometry">
            <mxPoint x="540" y="500" as="sourcePoint" />
            <mxPoint x="590" y="450" as="targetPoint" />
          </mxGeometry>
        </mxCell>
        <mxCell id="4KmMnt4Qvvy9tC9HKDvp-47" value="" style="endArrow=none;html=1;rounded=0;exitX=1;exitY=0.5;exitDx=0;exitDy=0;" parent="1" source="4KmMnt4Qvvy9tC9HKDvp-24" edge="1">
          <mxGeometry width="50" height="50" relative="1" as="geometry">
            <mxPoint x="540" y="500" as="sourcePoint" />
            <mxPoint x="590" y="450" as="targetPoint" />
          </mxGeometry>
        </mxCell>
        <mxCell id="4KmMnt4Qvvy9tC9HKDvp-50" value="" style="endArrow=none;html=1;rounded=0;exitX=1;exitY=0.5;exitDx=0;exitDy=0;" parent="1" source="4KmMnt4Qvvy9tC9HKDvp-22" edge="1">
          <mxGeometry width="50" height="50" relative="1" as="geometry">
            <mxPoint x="540" y="500" as="sourcePoint" />
            <mxPoint x="590" y="450" as="targetPoint" />
          </mxGeometry>
        </mxCell>
        <mxCell id="4KmMnt4Qvvy9tC9HKDvp-51" value="" style="endArrow=none;html=1;rounded=0;exitX=1;exitY=0.5;exitDx=0;exitDy=0;" parent="1" source="4KmMnt4Qvvy9tC9HKDvp-21" edge="1">
          <mxGeometry width="50" height="50" relative="1" as="geometry">
            <mxPoint x="540" y="500" as="sourcePoint" />
            <mxPoint x="590" y="450" as="targetPoint" />
          </mxGeometry>
        </mxCell>
        <mxCell id="4KmMnt4Qvvy9tC9HKDvp-52" value="" style="endArrow=none;html=1;rounded=0;exitX=0.948;exitY=0.347;exitDx=0;exitDy=0;exitPerimeter=0;" parent="1" source="4KmMnt4Qvvy9tC9HKDvp-20" edge="1">
          <mxGeometry width="50" height="50" relative="1" as="geometry">
            <mxPoint x="540" y="500" as="sourcePoint" />
            <mxPoint x="590" y="450" as="targetPoint" />
          </mxGeometry>
        </mxCell>
        <mxCell id="4KmMnt4Qvvy9tC9HKDvp-53" value="" style="endArrow=none;html=1;rounded=0;exitX=1;exitY=0.5;exitDx=0;exitDy=0;" parent="1" source="4KmMnt4Qvvy9tC9HKDvp-19" edge="1">
          <mxGeometry width="50" height="50" relative="1" as="geometry">
            <mxPoint x="460" y="600" as="sourcePoint" />
            <mxPoint x="590" y="450" as="targetPoint" />
          </mxGeometry>
        </mxCell>
        <mxCell id="FdoYtWaX1vXMOM0kNqNQ-3" value="&amp;lt;&amp;lt;include&amp;gt;&amp;gt;" style="text;strokeColor=none;align=center;fillColor=none;html=1;verticalAlign=middle;whiteSpace=wrap;rounded=0;" parent="1" vertex="1">
          <mxGeometry x="405" y="530" width="60" height="30" as="geometry" />
        </mxCell>
        <mxCell id="rfXMJDXDZlrtS7lAOH1J-1" value="Place Order" style="ellipse;whiteSpace=wrap;html=1;container=1;" parent="1" vertex="1">
          <mxGeometry x="340" y="260" width="120" height="30" as="geometry" />
        </mxCell>
        <mxCell id="rfXMJDXDZlrtS7lAOH1J-7" value="&amp;lt;&amp;lt;include&amp;gt;&amp;gt;" style="text;html=1;align=center;verticalAlign=middle;resizable=0;points=[];autosize=1;strokeColor=none;fillColor=none;" parent="1" vertex="1">
          <mxGeometry x="397" y="230" width="90" height="30" as="geometry" />
        </mxCell>
        <mxCell id="rfXMJDXDZlrtS7lAOH1J-10" value="" style="endArrow=block;html=1;rounded=0;dashed=1;endFill=1;" parent="1" edge="1">
          <mxGeometry width="50" height="50" relative="1" as="geometry">
            <mxPoint x="399.5" y="260" as="sourcePoint" />
            <mxPoint x="399.5" y="230" as="targetPoint" />
          </mxGeometry>
        </mxCell>
        <mxCell id="rfXMJDXDZlrtS7lAOH1J-11" value="" style="endArrow=block;html=1;rounded=0;dashed=1;endFill=1;" parent="1" edge="1">
          <mxGeometry width="50" height="50" relative="1" as="geometry">
            <mxPoint x="399.41" y="560" as="sourcePoint" />
            <mxPoint x="399.41" y="530" as="targetPoint" />
          </mxGeometry>
        </mxCell>
        <mxCell id="rfXMJDXDZlrtS7lAOH1J-14" value="" style="endArrow=none;html=1;rounded=0;exitX=0;exitY=0.5;exitDx=0;exitDy=0;entryX=1;entryY=0.3333333333333333;entryDx=0;entryDy=0;entryPerimeter=0;" parent="1" source="4KmMnt4Qvvy9tC9HKDvp-25" target="4KmMnt4Qvvy9tC9HKDvp-26" edge="1">
          <mxGeometry width="50" height="50" relative="1" as="geometry">
            <mxPoint x="170" y="690" as="sourcePoint" />
            <mxPoint x="220" y="640" as="targetPoint" />
          </mxGeometry>
        </mxCell>
        <mxCell id="rfXMJDXDZlrtS7lAOH1J-15" value="" style="endArrow=none;html=1;rounded=0;entryX=0;entryY=0.5;entryDx=0;entryDy=0;" parent="1" target="rfXMJDXDZlrtS7lAOH1J-1" edge="1">
          <mxGeometry width="50" height="50" relative="1" as="geometry">
            <mxPoint x="210" y="450" as="sourcePoint" />
            <mxPoint x="190" y="300" as="targetPoint" />
          </mxGeometry>
        </mxCell>
        <mxCell id="iTrep064BJ_zBoVIAUvX-1" value="" style="endArrow=none;html=1;rounded=0;exitX=1;exitY=0.5;exitDx=0;exitDy=0;" parent="1" source="0pAaLDs-M5oaFOF3E11J-9" edge="1">
          <mxGeometry width="50" height="50" relative="1" as="geometry">
            <mxPoint x="520" y="265" as="sourcePoint" />
            <mxPoint x="590" y="450" as="targetPoint" />
          </mxGeometry>
        </mxCell>
        <mxCell id="YSlBeYA8LApBqhsQ95f7-1" value="View Order Details" style="ellipse;whiteSpace=wrap;html=1;container=1;" parent="1" vertex="1">
          <mxGeometry x="340" y="300" width="120" height="30" as="geometry" />
        </mxCell>
        <mxCell id="YSlBeYA8LApBqhsQ95f7-6" value="" style="endArrow=none;html=1;rounded=0;entryX=0;entryY=0.5;entryDx=0;entryDy=0;" parent="1" edge="1">
          <mxGeometry width="50" height="50" relative="1" as="geometry">
            <mxPoint x="210" y="450" as="sourcePoint" />
            <mxPoint x="340" y="315" as="targetPoint" />
          </mxGeometry>
        </mxCell>
      </root>
    </mxGraphModel>
  </diagram>
</mxfile>
